<svg width="817" height="125" viewBox="0 0 817 125" fill="none" xmlns="http://www.w3.org/2000/svg">
<mask id="mask0_212_6" style="mask-type:alpha" maskUnits="userSpaceOnUse" x="0" y="1" width="90" height="124">
<path fill-rule="evenodd" clip-rule="evenodd" d="M80.9712 59.7733H8.03151V49.6635C8.03151 45.9705 5.01313 42.9585 1.31234 42.9585H0V5.47871C0 3.01673 2.021 1 4.48819 1H84.5145C86.9817 1 89.0027 3.01673 89.0027 5.47871V42.9585H87.6904C83.9896 42.9585 80.9712 45.9705 80.9712 49.6635V59.7733ZM0 119.673C0 122.135 2.021 124.152 4.48819 124.152H84.5145C86.9817 124.152 89.0027 122.135 89.0027 119.673V82.1931H87.6904C83.9896 82.1931 80.9712 79.1811 80.9712 75.4881V65.3783H8.03151V75.4881C8.03151 79.1811 5.01313 82.1931 1.31234 82.1931H0V119.673Z" fill="url(#paint0_linear_212_6)"/>
</mask>
<g mask="url(#mask0_212_6)">
<path d="M77.9184 98L63.3184 75.1C71.4184 70.9 75.8184 63.1 75.8184 52.5C75.8184 36.9 65.2184 27.9 46.6184 27.9H15.1184V98H33.4184V78.6H46.6184H47.0184L57.2184 98H77.9184ZM33.4184 42.5H46.7184C54.1184 42.5 58.4184 46.2 58.4184 53.1C58.4184 60.2 54.1184 64 46.7184 64H33.4184V42.5Z" fill="white"/>
</g>
<mask id="mask1_212_6" style="mask-type:alpha" maskUnits="userSpaceOnUse" x="208" y="0" width="90" height="124">
<path fill-rule="evenodd" clip-rule="evenodd" d="M288.971 58.7733H216.032V48.6635C216.032 44.9705 213.013 41.9585 209.312 41.9585H208V4.47871C208 2.01673 210.021 0 212.488 0H292.515C294.982 0 297.003 2.01673 297.003 4.47871V41.9585H295.69C291.99 41.9585 288.971 44.9705 288.971 48.6635V58.7733ZM208 118.673C208 121.135 210.021 123.152 212.488 123.152H292.515C294.982 123.152 297.003 121.135 297.003 118.673V81.1931H295.69C291.99 81.1931 288.971 78.1811 288.971 74.4881V64.3783H216.032V74.4881C216.032 78.1811 213.013 81.1931 209.312 81.1931H208V118.673Z" fill="url(#paint1_linear_212_6)"/>
</mask>
<g mask="url(#mask1_212_6)">
<path d="M263.32 28V98H247.12V41H233.12V28H263.32Z" fill="white"/>
</g>
<mask id="mask2_212_6" style="mask-type:alpha" maskUnits="userSpaceOnUse" x="312" y="0" width="90" height="124">
<path fill-rule="evenodd" clip-rule="evenodd" d="M392.971 58.7733H320.032V48.6635C320.032 44.9705 317.013 41.9585 313.312 41.9585H312V4.47871C312 2.01673 314.021 0 316.488 0H396.515C398.982 0 401.003 2.01673 401.003 4.47871V41.9585H399.69C395.99 41.9585 392.971 44.9705 392.971 48.6635V58.7733ZM312 118.673C312 121.135 314.021 123.152 316.488 123.152H396.515C398.982 123.152 401.003 121.135 401.003 118.673V81.1931H399.69C395.99 81.1931 392.971 78.1811 392.971 74.4881V64.3783H320.032V74.4881C320.032 78.1811 317.013 81.1931 313.312 81.1931H312V118.673Z" fill="url(#paint2_linear_212_6)"/>
</mask>
<g mask="url(#mask2_212_6)">
<path d="M356.041 27.4C338.241 27.4 328.541 40 328.541 62.9C328.541 85.8 338.241 98.5 356.041 98.5C373.641 98.5 383.441 85.8 383.441 62.9C383.441 40 373.641 27.4 356.041 27.4ZM356.041 40.2C363.041 40.2 365.941 46.8 365.941 62.9C365.941 78.9 363.041 85.6 356.041 85.6C348.941 85.6 346.041 78.9 346.041 62.9C346.041 46.8 348.941 40.2 356.041 40.2Z" fill="white"/>
</g>
<mask id="mask3_212_6" style="mask-type:alpha" maskUnits="userSpaceOnUse" x="416" y="0" width="90" height="124">
<path fill-rule="evenodd" clip-rule="evenodd" d="M496.971 58.7733H424.032V48.6635C424.032 44.9705 421.013 41.9585 417.312 41.9585H416V4.47871C416 2.01673 418.021 0 420.488 0H500.515C502.982 0 505.003 2.01673 505.003 4.47871V41.9585H503.69C499.99 41.9585 496.971 44.9705 496.971 48.6635V58.7733ZM416 118.673C416 121.135 418.021 123.152 420.488 123.152H500.515C502.982 123.152 505.003 121.135 505.003 118.673V81.1931H503.69C499.99 81.1931 496.971 78.1811 496.971 74.4881V64.3783H424.032V74.4881C424.032 78.1811 421.013 81.1931 417.312 81.1931H416V118.673Z" fill="url(#paint3_linear_212_6)"/>
</mask>
<g mask="url(#mask3_212_6)">
<path d="M460.041 27.4C442.241 27.4 432.541 40 432.541 62.9C432.541 85.8 442.241 98.5 460.041 98.5C477.641 98.5 487.441 85.8 487.441 62.9C487.441 40 477.641 27.4 460.041 27.4ZM460.041 40.2C467.041 40.2 469.941 46.8 469.941 62.9C469.941 78.9 467.041 85.6 460.041 85.6C452.941 85.6 450.041 78.9 450.041 62.9C450.041 46.8 452.941 40.2 460.041 40.2Z" fill="white"/>
</g>
<mask id="mask4_212_6" style="mask-type:alpha" maskUnits="userSpaceOnUse" x="520" y="0" width="90" height="124">
<path fill-rule="evenodd" clip-rule="evenodd" d="M600.971 58.7733H528.032V48.6635C528.032 44.9705 525.013 41.9585 521.312 41.9585H520V4.47871C520 2.01673 522.021 0 524.488 0H604.515C606.982 0 609.003 2.01673 609.003 4.47871V41.9585H607.69C603.99 41.9585 600.971 44.9705 600.971 48.6635V58.7733ZM520 118.673C520 121.135 522.021 123.152 524.488 123.152H604.515C606.982 123.152 609.003 121.135 609.003 118.673V81.1931H607.69C603.99 81.1931 600.971 78.1811 600.971 74.4881V64.3783H528.032V74.4881C528.032 78.1811 525.013 81.1931 521.312 81.1931H520V118.673Z" fill="url(#paint4_linear_212_6)"/>
</mask>
<g mask="url(#mask4_212_6)">
<path d="M536.841 27.8V52.4H553.041V42.6H572.641L547.041 98H566.341L592.741 40.5V27.8H536.841Z" fill="white"/>
</g>
<mask id="mask5_212_6" style="mask-type:alpha" maskUnits="userSpaceOnUse" x="623" y="0" width="90" height="124">
<path fill-rule="evenodd" clip-rule="evenodd" d="M703.971 58.7733H631.032V48.6635C631.032 44.9705 628.013 41.9585 624.312 41.9585H623V4.47871C623 2.01673 625.021 0 627.488 0H707.515C709.982 0 712.003 2.01673 712.003 4.47871V41.9585H710.69C706.99 41.9585 703.971 44.9705 703.971 48.6635V58.7733ZM623 118.673C623 121.135 625.021 123.152 627.488 123.152H707.515C709.982 123.152 712.003 121.135 712.003 118.673V81.1931H710.69C706.99 81.1931 703.971 78.1811 703.971 74.4881V64.3783H631.032V74.4881C631.032 78.1811 628.013 81.1931 624.312 81.1931H623V118.673Z" fill="url(#paint5_linear_212_6)"/>
</mask>
<g mask="url(#mask5_212_6)">
<path d="M675.341 56.7L671.841 56.2L690.741 38.6V28H641.741L641.841 42.1H668.841L652.441 57.8V67.6H664.241C672.041 67.6 676.341 70.5 676.341 76.1C676.341 81.6 672.041 84.8 664.341 84.8C657.641 84.8 651.041 81.8 645.541 76.1L638.141 90.2C644.941 95.4 655.541 98.8 665.741 98.8C683.141 98.8 694.241 89.4 694.241 75.9C694.241 65.2 686.441 58.4 675.341 56.7Z" fill="white"/>
</g>
<mask id="mask6_212_6" style="mask-type:alpha" maskUnits="userSpaceOnUse" x="728" y="0" width="90" height="124">
<path fill-rule="evenodd" clip-rule="evenodd" d="M808.971 58.7733H736.032V48.6635C736.032 44.9705 733.013 41.9585 729.312 41.9585H728V4.47871C728 2.01673 730.021 0 732.488 0H812.515C814.982 0 817.003 2.01673 817.003 4.47871V41.9585H815.69C811.99 41.9585 808.971 44.9705 808.971 48.6635V58.7733ZM728 118.673C728 121.135 730.021 123.152 732.488 123.152H812.515C814.982 123.152 817.003 121.135 817.003 118.673V81.1931H815.69C811.99 81.1931 808.971 78.1811 808.971 74.4881V64.3783H736.032V74.4881C736.032 78.1811 733.013 81.1931 729.312 81.1931H728V118.673Z" fill="url(#paint6_linear_212_6)"/>
</mask>
<g mask="url(#mask6_212_6)">
<path d="M771.141 59.7L745.641 85.9L745.741 98H799.141V83.3H769.141L783.541 68.9C791.341 61 797.141 53.1 797.141 45.5C797.141 34.4 786.841 27 772.641 27C762.441 27 752.641 31 743.641 37.6L750.541 51.1C757.041 45.6 764.241 42.2 769.941 42.2C775.041 42.2 777.941 44.4 777.941 48.2C777.941 51.2 775.041 55.7 771.141 59.7Z" fill="white"/>
</g>
<defs>
<linearGradient id="paint0_linear_212_6" x1="82.4114" y1="120.059" x2="11.9611" y2="8.4588" gradientUnits="userSpaceOnUse">
<stop stop-color="#080A24"/>
<stop offset="1" stop-color="#662D91"/>
</linearGradient>
<linearGradient id="paint1_linear_212_6" x1="290.411" y1="119.059" x2="219.961" y2="7.4588" gradientUnits="userSpaceOnUse">
<stop stop-color="#080A24"/>
<stop offset="1" stop-color="#662D91"/>
</linearGradient>
<linearGradient id="paint2_linear_212_6" x1="394.411" y1="119.059" x2="323.961" y2="7.4588" gradientUnits="userSpaceOnUse">
<stop stop-color="#080A24"/>
<stop offset="1" stop-color="#662D91"/>
</linearGradient>
<linearGradient id="paint3_linear_212_6" x1="498.411" y1="119.059" x2="427.961" y2="7.4588" gradientUnits="userSpaceOnUse">
<stop stop-color="#080A24"/>
<stop offset="1" stop-color="#662D91"/>
</linearGradient>
<linearGradient id="paint4_linear_212_6" x1="602.411" y1="119.059" x2="531.961" y2="7.4588" gradientUnits="userSpaceOnUse">
<stop stop-color="#080A24"/>
<stop offset="1" stop-color="#662D91"/>
</linearGradient>
<linearGradient id="paint5_linear_212_6" x1="705.411" y1="119.059" x2="634.961" y2="7.4588" gradientUnits="userSpaceOnUse">
<stop stop-color="#080A24"/>
<stop offset="1" stop-color="#662D91"/>
</linearGradient>
<linearGradient id="paint6_linear_212_6" x1="810.411" y1="119.059" x2="739.961" y2="7.4588" gradientUnits="userSpaceOnUse">
<stop stop-color="#080A24"/>
<stop offset="1" stop-color="#662D91"/>
</linearGradient>
</defs>
</svg>
